<?xml version='1.0' encoding='iso-8859-1'?>
<svg version="1.1" xmlns="http://www.w3.org/2000/svg" viewBox="0 0 137.144 137.144" xmlns:xlink="http://www.w3.org/1999/xlink" enable-background="new 0 0 137.144 137.144">
  <g>
    <g>
      <path d="m82.287,41.144c-8.404,0.611-13.714,13.715-13.714,13.715h34.286c-1.42109e-14-0.001-2.86-15.001-20.572-13.715zm-27.429,0c-17.712-1.285-20.571,13.715-20.571,13.715h34.286c0-0.001-5.31-13.105-13.715-13.715zm54.857-41.144h-82.286c-15.149,0-27.429,12.281-27.429,27.429v82.286c0,15.149 12.28,27.429 27.429,27.429h82.286c15.149,0 27.429-12.28 27.429-27.429v-82.286c0-15.148-12.28-27.429-27.429-27.429zm13.715,102.858c0,11.361-9.21,20.571-20.571,20.571h-68.573c-11.362,0-20.572-9.211-20.572-20.571v-68.572c0-11.361 9.21-20.572 20.572-20.572h68.572c11.361,0 20.571,9.211 20.571,20.572v68.572zm-95.999-20.571h6.857v13.714h13.714v-13.714h41.143v13.714h13.714v-13.714h6.857v-20.571h-82.285v20.571z"/>
    </g>
  </g>
</svg>
